<svg xmlns="http://www.w3.org/2000/svg" version="1.1" xmlns:xlink="http://www.w3.org/1999/xlink" xmlns:svgjs="http://svgjs.com/svgjs" width="314.1" height="310.1"><svg id="SvgjsSvg1000" data-name="Layer 1" xmlns="http://www.w3.org/2000/svg" viewBox="0 0 314.1 310.1">
  <defs>
    <style>
      .cls-1, .cls-2, .cls-3 {
        stroke-width: 0px;
      }

      .cls-2 {
        fill: #2900d4;
      }

      .cls-3 {
        fill: #fff;
      }
    </style>
  </defs>
  <path class="cls-2" d="M280.43,255.16c-.39.96-.68,2.02-.86,3.19-3.09,11.37-9.31,21.68-18.65,30.93-9.35,9.26-20,15.42-31.95,18.51-5.01,1.34-10.02,2.02-15.04,2.02-11.18,0-20.48-3.42-27.9-10.26-7.42-6.85-11.13-15.86-11.13-27.04-.19-4.25.29-8.87,1.44-13.88l6.65-24h-48.28l-6.65,24c-3.66,14.26-11.91,26.41-24.72,36.44-12.82,10.01-26.31,15.04-40.48,15.04s-24.91-5.06-32.24-15.19c-7.32-10.12-9.15-22.21-5.49-36.28l30.65-113.35c6.17-22.93,17.49-44.18,33.97-63.75,16.48-19.57,36-34.99,58.56-46.27,22.55-11.28,45.3-16.91,68.24-16.91,13.88,0,26.74,2.17,38.6,6.51,11.86,4.34,21.88,10.31,30.07,17.92,8.19,7.62,14.89,16.77,20.1,27.47,5.21,10.69,8.09,22.36,8.68,34.98.58,12.63-.78,25.98-4.05,40.04l-29.5,109.88Z"></path>
  <path class="cls-1" d="M257.14,236.81c-.39.96-.68,2.02-.86,3.19-3.09,11.37-9.31,21.68-18.65,30.93-9.35,9.26-20,15.42-31.95,18.51-5.01,1.34-10.02,2.02-15.04,2.02-11.18,0-20.48-3.42-27.9-10.26-7.42-6.85-11.13-15.86-11.13-27.04-.19-4.25.29-8.87,1.44-13.88l6.65-24h-48.28l-6.65,24c-3.66,14.26-11.91,26.41-24.72,36.44-12.82,10.01-26.31,15.04-40.48,15.04s-24.91-5.06-32.24-15.19C0,266.44-1.83,254.35,1.83,240.28l30.65-113.35c6.17-22.93,17.49-44.18,33.97-63.75,16.48-19.57,36-34.99,58.56-46.27C147.56,5.64,170.3,0,193.24,0c13.88,0,26.74,2.17,38.6,6.51,11.86,4.34,21.88,10.31,30.07,17.92,8.19,7.62,14.89,16.77,20.1,27.47,5.21,10.69,8.09,22.36,8.68,34.98.58,12.63-.78,25.98-4.05,40.04l-29.5,109.88Z"></path>
  <path class="cls-2" d="M258.88,103.49c-2.82-1.28-9.84-4.93-15.02-13.03-5.17-8.1-5.53-16-5.51-19.1-4.73,13.16-15.92,23.82-29.07,28.54,3.31,3.33,7.07,7.67,10.63,13.14,4.8,7.35,7.68,14.31,9.44,19.73,1.97-4.55,5.92-12.05,13.48-18.99,5.92-5.44,11.89-8.54,16.04-10.29Z"></path>
  <path class="cls-3" d="M170.42,195.64c10.87-21.63,14.32-40.15,15.55-51.84,1.77-16.82-.87-24.39-3.16-29.94-3.86-9.37-11.91-17.48-21.9-19.21-10.82-1.87-19.29,3.94-21.01,5.19-3.27,2.38-7.82,6.78-11.39,16.75-8.79,24.52-3.07,58.69-1.4,67.79-.9-.1-2.25-.14-3.8.25-2.48.63-4.09,2.01-4.84,2.75-5.41-22.36-10.48-44.94-24.52-62.1-4.54-5.55-10.36-10.61-17.43-11.82-5.31-.91-10.79.47-15.67,2.74-6.73,3.13-12.74,8.12-16.26,14.66-4.19,7.8-4.54,17.25-2.43,25.85,2.11,8.6,6.49,16.47,11.38,23.84,8.09,12.2,17.71,23.38,29.98,33.28-9.92,16.94-12.19,38.36-5.28,56.73,6.91,18.38,23.11,33.17,42.24,37.62,16.73,3.89,30.35.99,37.2-.91,9.19-2.55,28.07-7.78,38.87-25.88,10.81-18.11,6.44-37.22,5.13-42.95-5.99-26.2-26.42-39.77-31.26-42.8Z"></path>
</svg><style>@media (prefers-color-scheme: light) { :root { filter: none; } }
</style></svg>