<?xml version="1.0" encoding="UTF-8"?>
<svg id="Layer_1" data-name="Layer 1" xmlns="http://www.w3.org/2000/svg" viewBox="0 0 839.13 76.67">
  <defs>
    <style>
      .cls-1 {
        letter-spacing: -.04em;
      }

      .cls-2 {
        letter-spacing: 0em;
      }

      .cls-3 {
        letter-spacing: -.07em;
      }

      .cls-4, .cls-5, .cls-6 {
        stroke-width: 0px;
      }

      .cls-7 {
        letter-spacing: -.15em;
      }

      .cls-8 {
        font-family: LEMONMILK-Regular, 'LEMON MILK';
        font-size: 66px;
      }

      .cls-9 {
        letter-spacing: 0em;
      }

      .cls-5 {
        fill: #2900d4;
      }

      .cls-6 {
        fill: #fff;
      }
    </style>
  </defs>
  <text class="cls-8" transform="translate(66.09 58.98)"><tspan class="cls-1" x="0" y="0">s</tspan><tspan x="37.93" y="0">andra </tspan><tspan class="cls-7" x="303.84" y="0">p</tspan><tspan class="cls-3" x="336.29" y="0">a</tspan><tspan x="382.31" y="0">o</tspan><tspan class="cls-9" x="441.03" y="0">l</tspan><tspan class="cls-2" x="479.29" y="0">a neira </tspan></text>
  <path class="cls-5" d="m48.87,50.51c-.07.17-.12.35-.15.56-.54,1.98-1.62,3.78-3.25,5.39-1.63,1.61-3.48,2.69-5.56,3.22-.87.23-1.75.35-2.62.35-1.95,0-3.57-.6-4.86-1.79-1.29-1.19-1.94-2.76-1.94-4.71-.03-.74.05-1.55.25-2.42l1.16-4.18h-8.41l-1.16,4.18c-.64,2.48-2.07,4.6-4.31,6.35-2.23,1.74-4.58,2.62-7.05,2.62s-4.34-.88-5.62-2.65c-1.28-1.76-1.59-3.87-.96-6.32l5.34-19.74c1.07-3.99,3.05-7.7,5.92-11.1,2.87-3.41,6.27-6.09,10.2-8.06,3.93-1.96,7.89-2.95,11.89-2.95,2.42,0,4.66.38,6.72,1.13,2.07.76,3.81,1.8,5.24,3.12,1.43,1.33,2.59,2.92,3.5,4.79.91,1.86,1.41,3.89,1.51,6.09.1,2.2-.14,4.52-.7,6.97l-5.14,19.14Z"/>
  <path class="cls-4" d="m44.79,47.34c-.07.17-.12.35-.15.56-.54,1.98-1.63,3.77-3.26,5.38-1.63,1.61-3.49,2.68-5.57,3.22-.87.23-1.75.35-2.62.35-1.95,0-3.57-.6-4.86-1.79-1.29-1.19-1.93-2.77-1.93-4.71-.03-.74.05-1.55.25-2.42l1.16-4.18h-8.41s-1.16,4.17-1.16,4.17c-.64,2.48-2.08,4.6-4.31,6.34-2.24,1.74-4.59,2.61-7.06,2.61s-4.34-.89-5.61-2.65c-1.27-1.76-1.59-3.87-.95-6.32l5.37-19.74c1.08-3.99,3.06-7.69,5.93-11.1,2.88-3.4,6.28-6.09,10.21-8.04,3.93-1.96,7.89-2.93,11.89-2.93,2.42,0,4.66.38,6.72,1.14,2.06.76,3.81,1.8,5.23,3.13,1.43,1.33,2.59,2.92,3.49,4.79.9,1.86,1.4,3.9,1.5,6.1.1,2.2-.14,4.52-.71,6.97l-5.16,19.13Z"/>
  <path class="cls-5" d="m45.12,24.09c-.49-.22-1.71-.86-2.62-2.27s-.96-2.79-.96-3.33c-.82,2.29-2.77,4.15-5.06,4.97.58.58,1.23,1.34,1.85,2.29.84,1.28,1.34,2.49,1.64,3.44.34-.79,1.03-2.1,2.35-3.31,1.03-.95,2.07-1.49,2.79-1.79Z"/>
  <path class="cls-6" d="m29.71,40.14c1.89-3.77,2.49-6.99,2.71-9.03.31-2.93-.15-4.25-.55-5.21-.67-1.63-2.07-3.04-3.81-3.35-1.88-.33-3.36.69-3.66.9-.57.41-1.36,1.18-1.98,2.92-1.53,4.27-.53,10.22-.24,11.81-.16-.02-.39-.02-.66.04-.43.11-.71.35-.84.48-.94-3.89-1.83-7.83-4.27-10.82-.79-.97-1.8-1.85-3.04-2.06-.92-.16-1.88.08-2.73.48-1.17.55-2.22,1.41-2.83,2.55-.73,1.36-.79,3-.42,4.5.37,1.5,1.13,2.87,1.98,4.15,1.41,2.12,3.09,4.07,5.22,5.8-1.73,2.95-2.12,6.68-.92,9.88,1.2,3.2,4.03,5.78,7.36,6.55,2.91.68,5.29.17,6.48-.16,1.6-.44,4.89-1.36,6.77-4.51,1.88-3.15,1.12-6.48.89-7.48-1.04-4.56-4.6-6.93-5.45-7.46Z"/>
</svg>