<?xml version="1.0" encoding="UTF-8"?>
<svg id="Layer_1" data-name="Layer 1" xmlns="http://www.w3.org/2000/svg" viewBox="0 0 819.03 54.11">
  <defs>
    <style>
      .cls-1, .cls-2, .cls-3 {
        stroke-width: 0px;
      }

      .cls-4 {
        isolation: isolate;
      }

      .cls-2 {
        fill: #2900d4;
      }

      .cls-3 {
        fill: #fff;
      }
    </style>
  </defs>
  <g class="cls-4">
    <g class="cls-4">
      <path class="cls-1" d="M68.1,43.89l6.45-4.61c2.32,4.06,6.64,6.38,11.63,6.38,5.83,0,10.25-2.8,10.25-6.77,0-4.8-6.83-7.7-12.89-10.31-6.09-2.71-12.86-5.87-12.86-14.02S78.06.13,87.4.13c7.41,0,12.96,3.58,15.08,9.28l-6.06,4.19c-1.61-3.51-5.19-5.48-8.96-5.48-4.77,0-8.57,2.96-8.57,6.64,0,4.06,4.8,5.51,11.12,8.22,8.22,3.61,14.6,7.57,14.6,15.76,0,9.22-7.99,15.15-18.53,15.15-8.54,0-15.02-4-17.98-9.99Z"/>
    </g>
    <g class="cls-4">
      <path class="cls-1" d="M141.74,45.12h-24.59l-3.54,7.9h-8.83L129.2,0h.48l24.43,53.01h-8.83l-3.54-7.9ZM138.58,38.12l-9.12-20.3-9.15,20.3h18.27Z"/>
      <path class="cls-1" d="M201.64.93v52.98h-.39l-33.23-34.71v33.87h-8.15V.16h.42l33.16,34.64V.93h8.19Z"/>
      <path class="cls-1" d="M253.21,27.1c0,15.95-10.28,25.91-26.78,25.91h-14.79V1.06h14.79c16.5-.03,26.78,9.96,26.78,26.04ZM244.96,27.07c0-11.02-7.15-17.92-18.56-17.92h-6.64v35.74h6.74c11.34,0,18.47-6.86,18.47-17.82Z"/>
      <path class="cls-1" d="M289.24,53.01l-13.99-20.11h-6.38v20.11h-8.15l-.03-51.95h16.15c9.67,0,17.6,7.44,17.6,16.69,0,6.7-4.32,12.54-10.28,14.47l15.11,20.79h-10.02ZM277.02,26.14c4.9.03,8.99-3.93,8.99-8.57s-4.16-8.41-8.99-8.41h-8.19v16.98h8.19Z"/>
      <path class="cls-1" d="M337.45,45.12h-24.59l-3.54,7.9h-8.83L324.91,0h.48l24.43,53.01h-8.83l-3.54-7.9ZM334.29,38.12l-9.12-20.3-9.15,20.3h18.27Z"/>
    </g>
    <g class="cls-4">
      <path class="cls-1" d="M374.94,1.06h17.37c10.05,0,18.27,7.7,18.27,17.14s-8.22,16.79-18.27,16.79h-9.22v18.01h-8.15V1.06ZM402.42,18.14c0-4.96-4.54-8.99-10.12-8.99h-9.22v17.76l9.22.03c5.58.03,10.12-3.93,10.12-8.8Z"/>
    </g>
    <g class="cls-4">
      <path class="cls-1" d="M440.1,45.12h-24.59l-3.54,7.9h-8.83L427.56,0h.48l24.43,53.01h-8.83l-3.54-7.9ZM436.94,38.12l-9.12-20.3-9.15,20.3h18.27Z"/>
    </g>
    <g class="cls-4">
      <path class="cls-1" d="M450.92,27.1c0-14.82,12.05-26.94,26.84-26.94s26.88,12.12,26.88,26.94-12.12,26.75-26.91,26.75-26.81-12.05-26.81-26.75ZM496.4,27.04c0-10.28-8.41-18.66-18.66-18.66s-18.59,8.38-18.59,18.66,8.35,18.56,18.59,18.56,18.66-8.35,18.66-18.56Z"/>
    </g>
    <g class="cls-4">
      <path class="cls-1" d="M543.45,44.89v8.12h-31.32V1.06h8.15v43.83h23.17Z"/>
    </g>
    <g class="cls-4">
      <path class="cls-1" d="M583.1,45.12h-24.59l-3.54,7.9h-8.83L570.56,0h.48l24.43,53.01h-8.83l-3.54-7.9ZM579.94,38.12l-9.12-20.3-9.15,20.3h18.27Z"/>
      <path class="cls-1" d="M662.34.93v52.98h-.39l-33.23-34.71v33.87h-8.15V.16h.42l33.16,34.64V.93h8.19Z"/>
      <path class="cls-1" d="M680.48,9.09v13.31h19.66v8.12h-19.66v14.37h22.78v8.12h-30.94V1.06h30.94v8.02h-22.78Z"/>
      <path class="cls-1" d="M711.74,1.06h8.15v51.95h-8.15V1.06Z"/>
      <path class="cls-1" d="M758.44,53.01l-13.99-20.11h-6.38v20.11h-8.15l-.03-51.95h16.15c9.67,0,17.6,7.44,17.6,16.69,0,6.7-4.32,12.54-10.28,14.47l15.11,20.79h-10.02ZM746.23,26.14c4.9.03,8.99-3.93,8.99-8.57s-4.16-8.41-8.99-8.41h-8.19v16.98h8.19Z"/>
      <path class="cls-1" d="M806.65,45.12h-24.59l-3.54,7.9h-8.83L794.11,0h.48l24.43,53.01h-8.83l-3.54-7.9ZM803.49,38.12l-9.12-20.3-9.15,20.3h18.27Z"/>
    </g>
  </g>
  <path class="cls-2" d="M48.88,44.54c-.07.17-.12.35-.15.56-.54,1.98-1.62,3.78-3.25,5.39s-3.48,2.69-5.56,3.22c-.87.23-1.75.35-2.62.35-1.95,0-3.57-.6-4.86-1.79-1.29-1.19-1.94-2.76-1.94-4.71-.03-.74.05-1.55.25-2.42l1.16-4.18h-8.41l-1.16,4.18c-.64,2.48-2.07,4.6-4.31,6.35-2.23,1.74-4.58,2.62-7.05,2.62s-4.34-.88-5.62-2.65c-1.28-1.76-1.59-3.87-.96-6.32l5.34-19.74c1.07-3.99,3.05-7.7,5.92-11.1,2.87-3.41,6.27-6.09,10.2-8.06,3.93-1.96,7.89-2.95,11.89-2.95,2.42,0,4.66.38,6.72,1.13,2.07.76,3.81,1.8,5.24,3.12,1.43,1.33,2.59,2.92,3.5,4.79.91,1.86,1.41,3.89,1.51,6.09s-.14,4.52-.7,6.97l-5.14,19.14h0Z"/>
  <path class="cls-1" d="M44.8,41.37c-.07.17-.12.35-.15.56-.54,1.98-1.63,3.77-3.26,5.38-1.63,1.61-3.49,2.68-5.57,3.22-.87.23-1.75.35-2.62.35-1.95,0-3.57-.6-4.86-1.79-1.29-1.19-1.93-2.77-1.93-4.71-.03-.74.05-1.55.25-2.42l1.16-4.18h-8.41l-1.16,4.17c-.64,2.48-2.08,4.6-4.31,6.34-2.24,1.74-4.59,2.61-7.06,2.61s-4.34-.89-5.61-2.65C0,46.49-.32,44.38.32,41.93l5.37-19.74c1.08-3.99,3.06-7.69,5.93-11.1,2.88-3.4,6.28-6.09,10.21-8.04C25.76,1.09,29.72.12,33.72.12c2.42,0,4.66.38,6.72,1.14s3.81,1.8,5.23,3.13c1.43,1.33,2.59,2.92,3.49,4.79.9,1.86,1.4,3.9,1.5,6.1.1,2.2-.14,4.52-.71,6.97l-5.16,19.13h0Z"/>
  <path class="cls-2" d="M45.13,18.12c-.49-.22-1.71-.86-2.62-2.27s-.96-2.79-.96-3.33c-.82,2.29-2.77,4.15-5.06,4.97.58.58,1.23,1.34,1.85,2.29.84,1.28,1.34,2.49,1.64,3.44.34-.79,1.03-2.1,2.35-3.31,1.03-.95,2.07-1.49,2.79-1.79h.01Z"/>
  <path class="cls-3" d="M29.72,34.17c1.89-3.77,2.49-6.99,2.71-9.03.31-2.93-.15-4.25-.55-5.21-.67-1.63-2.07-3.04-3.81-3.35-1.88-.33-3.36.69-3.66.9-.57.41-1.36,1.18-1.98,2.92-1.53,4.27-.53,10.22-.24,11.81-.16-.02-.39-.02-.66.04-.43.11-.71.35-.84.48-.94-3.89-1.83-7.83-4.27-10.82-.79-.97-1.8-1.85-3.04-2.06-.92-.16-1.88.08-2.73.48-1.17.55-2.22,1.41-2.83,2.55-.73,1.36-.79,3-.42,4.5.37,1.5,1.13,2.87,1.98,4.15,1.41,2.12,3.09,4.07,5.22,5.8-1.73,2.95-2.12,6.68-.92,9.88s4.03,5.78,7.36,6.55c2.91.68,5.29.17,6.48-.16,1.6-.44,4.89-1.36,6.77-4.51s1.12-6.48.89-7.48c-1.04-4.56-4.6-6.93-5.45-7.46v.02Z"/>
</svg>